<?xml version="1.0" standalone="no"?><!DOCTYPE svg PUBLIC "-//W3C//DTD SVG 1.1//EN" "http://www.w3.org/Graphics/SVG/1.1/DTD/svg11.dtd"><svg t="1531992704574" class="icon" style="" viewBox="0 0 1024 1024" version="1.1" xmlns="http://www.w3.org/2000/svg" p-id="6262" xmlns:xlink="http://www.w3.org/1999/xlink" width="24" height="24"><defs><style type="text/css"></style></defs><path d="M433.61935 442.500113c3.922333-0.044002 7.844665-1.533936 10.824533-4.557806 3.001357-2.978844 4.491291-6.92369 4.491291-10.866488l-0.152473-319.099619a5.169743 5.169743 0 0 0-3.155876-4.732791 5.145184 5.145184 0 0 0-5.587252 1.137916L332.17082 211.742519 187.547978 67.747987a15.33936 15.33936 0 0 0-10.867511-4.469802 15.308661 15.308661 0 0 0-10.82351 4.469802L67.651284 165.511591c-2.804882 2.762927-4.51278 6.617721-4.51278 10.911514a15.359826 15.359826 0 0 0 4.51278 10.911514l144.524605 143.905504-104.822371 104.380302c-1.445932 1.401929-1.927909 3.592828-1.095961 5.610788 0.788969 1.970888 2.716878 3.154853 4.733815 3.154853l322.627978-1.885953z m-0.109494 136.325875c3.943822-0.044002 7.887644 1.489934 10.890025 4.469801a15.381315 15.381315 0 0 1 4.535293 10.910491l-0.152473 321.773518c0 2.013867-1.183965 3.943822-3.155876 4.731768-1.971911 0.831948-4.16281 0.306992-5.587252-1.094938L332.17082 812.213479 187.547978 956.249967a15.331173 15.331173 0 0 1-10.867511 4.469801c-4.205788 0-8.063653-1.708921-10.82351-4.469801L67.651284 858.488409a15.361873 15.361873 0 0 1-4.51278-10.911514c0-4.249791 1.706875-8.150634 4.51278-10.910491l144.524605-143.906527-104.910375-104.46933a5.183046 5.183046 0 0 1-1.137917-5.609765c0.831948-1.971911 2.716878-3.154853 4.730745-3.198855l322.651514-0.655939z m156.750044-136.325875c-3.943822-0.044002-7.842619-1.533936-10.82351-4.557806-3.02387-2.978844-4.51278-6.92369-4.51278-10.866488l0.174985-319.099619a5.169743 5.169743 0 0 1 3.155876-4.732791c1.971911-0.789992 4.16281-0.306992 5.56474 1.137916l107.888195 107.36017 144.613632-143.993508c2.803859-2.759857 6.616698-4.469801 10.866489-4.469802 4.250814 0 8.06263 1.709945 10.867512 4.469802l98.16167 97.763604c2.803859 2.762927 4.514827 6.617721 4.514827 10.911514 0 4.250814-1.709945 8.106632-4.514827 10.866489L811.648103 331.240123 916.514475 435.620425c1.446955 1.401929 1.927909 3.592828 1.096984 5.610788-0.789992 1.970888-2.716878 3.154853-4.733814 3.154853l-322.617745-1.885953z m0.088004 136.325875c-3.944845-0.044002-7.887644 1.489934-10.866488 4.469801-3.02387 3.022847-4.557806 6.967692-4.557806 10.910491l0.174985 321.773518c0 2.013867 1.182942 3.943822 3.155876 4.732791 1.971911 0.831948 4.16281 0.305969 5.56474-1.094938l107.888195-107.402125 144.613632 144.036487c2.803859 2.76088 6.616698 4.469801 10.866489 4.469802 4.250814 0 8.06263-1.708921 10.867512-4.469802l98.16167-97.761558a15.370059 15.370059 0 0 0 4.514827-10.911514c0-4.249791-1.709945-8.150634-4.514827-10.91049L811.648103 692.759877l104.9554-104.468307a5.186116 5.186116 0 0 0 1.139963-5.609764c-0.832971-1.971911-2.716878-3.154853-4.733815-3.197832l-322.661747-0.657986z" p-id="6263" fill="#99cc33"></path></svg>