<?xml version="1.0" standalone="no"?><!DOCTYPE svg PUBLIC "-//W3C//DTD SVG 1.1//EN" "http://www.w3.org/Graphics/SVG/1.1/DTD/svg11.dtd"><svg t="1531992677897" class="icon" style="" viewBox="0 0 1024 1024" version="1.1" xmlns="http://www.w3.org/2000/svg" p-id="2238" xmlns:xlink="http://www.w3.org/1999/xlink" width="24" height="24"><defs><style type="text/css"></style></defs><path d="M879.87 893.941l-273.933-0.512c-1.74 0-3.275-1.023-3.991-2.763-0.716-1.637-0.307-3.581 0.921-4.809l89.127-88.719-122.692-122.078c-2.354-2.354-3.786-5.628-3.786-9.312s1.433-6.855 3.786-9.312l83.295-82.988c2.354-2.354 5.628-3.786 9.21-3.786s6.855 1.433 9.21 3.786l122.794 122.282 91.584-91.175c1.228-1.228 3.070-1.637 4.707-0.921 1.637 0.716 2.661 2.354 2.661 3.991l0.102 273.114c0 3.377-1.33 6.651-3.888 9.312-2.354 2.661-5.73 3.888-9.107 3.888zM879.973 133.744c3.377 0 6.651 1.33 9.21 3.888s3.786 5.833 3.786 9.21l-0.102 270.863c0 1.637-1.023 3.275-2.661 3.991-1.637 0.716-3.581 0.307-4.707-0.921l-91.584-91.175-122.794 122.282c-2.354 2.354-5.628 3.786-9.21 3.786s-6.855-1.433-9.21-3.786l-83.295-82.988c-2.354-2.354-3.786-5.628-3.786-9.312 0-3.581 1.433-6.855 3.786-9.21l122.692-122.18-89.026-88.615c-1.228-1.228-1.637-3.070-0.921-4.809 0.716-1.637 2.354-2.661 3.991-2.661l273.831 1.637zM144.13 893.941c-3.377 0-6.651-1.228-9.21-3.786s-3.888-5.935-3.888-9.312l0.102-273.114c0-1.74 1.023-3.377 2.661-3.991 1.637-0.716 3.581-0.307 4.707 0.921l91.584 91.175 122.794-122.282c2.354-2.354 5.628-3.786 9.21-3.786s6.857 1.433 9.21 3.786l83.398 82.988c2.354 2.354 3.786 5.628 3.786 9.312 0 3.581-1.433 6.958-3.786 9.312l-122.692 122.078 89.026 88.719c1.228 1.228 1.637 3.070 0.921 4.809-0.716 1.637-2.354 2.661-3.991 2.763l-273.831 0.409zM144.027 133.744l273.831-1.637c1.74 0 3.377 1.023 3.991 2.661 0.716 1.74 0.307 3.581-0.921 4.809l-89.026 88.615 122.692 122.18c2.354 2.354 3.786 5.628 3.786 9.312s-1.433 6.958-3.786 9.312l-83.398 82.988c-2.354 2.354-5.628 3.786-9.21 3.786s-6.857-1.433-9.21-3.786l-122.794-122.282-91.584 91.175c-1.228 1.228-3.070 1.637-4.707 0.921s-2.661-2.354-2.661-3.991v-270.966c0-3.377 1.228-6.651 3.786-9.21s5.935-3.888 9.21-3.888z" fill="#99cc33" p-id="2239"></path></svg>