<?xml version="1.0" standalone="no"?><!DOCTYPE svg PUBLIC "-//W3C//DTD SVG 1.1//EN" "http://www.w3.org/Graphics/SVG/1.1/DTD/svg11.dtd"><svg t="1531911887688" class="icon" style="" viewBox="0 0 1024 1024" version="1.1" xmlns="http://www.w3.org/2000/svg" p-id="6010" xmlns:xlink="http://www.w3.org/1999/xlink" width="16" height="16"><defs><style type="text/css"></style></defs><path d="M783.101 420.918h-409.807v-151.622c0-50.42 61.149-106.206 136.603-106.206s136.603 55.786 136.603 106.206v45.417h0.715c3.577 25.746 25.748 45.413 52.566 45.413 26.82 0 48.991-19.667 52.567-45.413h0.716v-45.418c0-117.291-108.709-212.413-242.811-212.413-134.098 0-242.81 95.122-242.81 212.413v151.622h-30.395c-50.421 0-91.188 40.766-91.188 91.187v364.395c0 50.42 40.767 91.186 91.188 91.186h546.41c50.422 0 91.187-40.767 91.187-91.186v-364.395c-0.357-50.419-41.482-91.186-91.545-91.186zM555.311 757.061v41.481c0 26.105-20.383 47.203-45.773 47.203-25.033 0-45.414-21.099-45.414-47.203v-41.481c-35.76-16.807-60.793-52.926-60.793-94.764 0-57.932 47.562-104.778 106.207-104.778 58.646 0 106.206 46.846 106.206 104.778 0.358 41.838-24.674 77.956-60.433 94.764z" p-id="6011" fill="#F2A654"></path></svg>