<?xml version="1.0" standalone="no"?><!DOCTYPE svg PUBLIC "-//W3C//DTD SVG 1.1//EN" "http://www.w3.org/Graphics/SVG/1.1/DTD/svg11.dtd"><svg t="1543887423135" class="icon" style="" viewBox="0 0 1024 1024" version="1.1" xmlns="http://www.w3.org/2000/svg" p-id="2185" xmlns:xlink="http://www.w3.org/1999/xlink" width="16" height="16"><defs><style type="text/css"></style></defs><path d="M512 0C229.376 0 0 229.376 0 512s229.376 512 512 512 512-229.376 512-512S794.624 0 512 0m-3.072 870.4c-41.472 0-75.776-33.28-75.776-74.24S466.944 721.92 508.928 721.92c41.472 0 75.776 33.28 75.776 74.24-0.512 40.96-34.304 74.24-75.776 74.24M711.68 451.584c-14.848 23.552-46.08 54.784-94.72 95.232-25.088 20.48-40.448 37.376-46.592 50.176-6.144 12.8-8.704 35.328-8.192 67.584h-107.52c0-15.36-0.512-25.088-0.512-28.16 0-34.816 5.632-63.488 17.408-86.016s34.816-47.616 69.12-75.776 55.296-46.592 61.952-55.296c10.24-13.824 15.872-29.184 15.872-45.568 0-23.04-9.216-42.496-27.648-58.88-18.432-16.384-43.52-24.576-74.752-24.576-30.208 0-55.296 8.704-75.776 25.6s-37.888 54.784-41.984 77.824c-4.096 22.016-110.08 31.232-108.544-13.312 1.536-44.544 24.576-93.184 64.512-128C394.24 217.6 446.464 199.68 510.976 199.68c68.096 0 121.856 17.92 162.304 53.248 40.448 35.328 60.416 76.8 60.416 123.904 0 26.624-7.168 51.2-22.016 74.752m0 0" fill="#f4ea2a" p-id="2186"></path></svg>