<?xml version="1.0" standalone="no"?><!DOCTYPE svg PUBLIC "-//W3C//DTD SVG 1.1//EN" "http://www.w3.org/Graphics/SVG/1.1/DTD/svg11.dtd"><svg t="1723601453382" class="icon" viewBox="0 0 1024 1024" version="1.1" xmlns="http://www.w3.org/2000/svg" p-id="2308" xmlns:xlink="http://www.w3.org/1999/xlink" width="16" height="16"><path d="M933.79188053 859.89239467l-124.452864-124.39825067c54.2277632-69.58066347 86.87670613-156.76320427 86.87670614-251.59161173 0-226.3482368-184.19111253-410.47381333-410.56119467-410.47381334-226.3973888 0-410.56119467 184.12557653-410.56119467 410.47381334 0 226.32093013 184.16380587 410.46289067 410.56119467 410.46289066 94.72464213 0 181.82089387-32.53971627 251.3403904-86.64733013l124.48017067 124.452864c20.0933376 20.0769536 52.56751787 20.1752576 72.52978346 0.23483733 19.96117333-19.9786496 19.84648533-52.40367787-0.212992-72.51339946zM153.2919808 483.89707093c0-183.22445653 149.09549227-332.28608853 332.3625472-332.28608853s332.35708587 149.06272427 332.35708587 332.28608853S668.9226752 816.18425173 485.654528 816.18425173 153.2919808 667.12152747 153.2919808 483.89707093z m470.70358187-39.08785493h-99.24225707v-99.24225707c0-20.75415893-17.5210496-37.58598827-39.0987776-37.58598826-21.6006656 0-39.0987776 16.81107627-39.0987776 37.58598826v99.24225707H347.29710933c-20.7650816 0-37.59691093 17.51012693-37.59691093 39.10970027 0 21.59520427 16.81107627 39.08785493 37.59691093 39.08785493h99.25864107v99.22041173c0 20.75962027 17.49920427 37.60237227 39.0987776 37.60237227 21.57882027 0 39.0987776-16.82199893 39.0987776-37.60237227v-99.22041173h99.24225707c20.75962027 0 37.61329493-17.49920427 37.61329493-39.08785493 0.00109227-21.6006656-16.85367467-39.10970027-37.61329493-39.10970027z m0 0" fill="#f4ea2a" p-id="2309"></path></svg>